<?xml version="1.0" encoding="utf-8"?>
<!-- Generator: Adobe Illustrator 26.3.1, SVG Export Plug-In . SVG Version: 6.00 Build 0)  -->
<svg version="1.1" id="Layer_1" xmlns="http://www.w3.org/2000/svg" xmlns:xlink="http://www.w3.org/1999/xlink" x="0px" y="0px"
	 viewBox="0 0 24 24" style="enable-background:new 0 0 24 24;" xml:space="preserve">
<style type="text/css">
	.st0{fill:#F3FAFF;}
	.st1{enable-background:new    ;}
	.st2{fill:#43AAFF;}
	.st3{fill:#F42C95;}
	.st4{fill:#00C6AD;}
</style>
<path class="st0" d="M19.8,22.9H4.2c-1.7,0-3.1-1.4-3.1-3.1V4.2c0-1.7,1.4-3.1,3.1-3.1h15.6c1.7,0,3.1,1.4,3.1,3.1v15.6
	C22.9,21.5,21.5,22.9,19.8,22.9z"/>
<g>
	<g class="st1">
		<g>
			<polygon class="st2" points="5.6,4 5.7,18.5 16.4,20 16.4,17.1 8.3,16 8.3,7.3 11,7.6 11,4.7 			"/>
		</g>
		<g>
			<polygon class="st3" points="11,7.6 11,10.5 13.7,10.9 13.7,13.8 16.4,14.2 16.4,11.3 16.4,8.4 			"/>
		</g>
		<g>
			<polygon class="st4" points="16.4,11.3 16.4,14.2 16.4,17.1 19.1,17.5 19.1,11.7 			"/>
		</g>
	</g>
</g>
</svg>
